<svg id="Layer_1" data-name="Layer 1" xmlns="http://www.w3.org/2000/svg" viewBox="0 0 236.96 37.68"><defs><style>.cls-1{fill:#0b5169;}.cls-2{fill:#039b9a;}.cls-3{fill:#eddb58;}.cls-4{fill:#126581;}</style></defs><title>logo_01</title><path class="cls-1" d="M16.08,34.85a6.22,6.22,0,0,1,4.5,1.56,5.73,5.73,0,0,1,1.63,4.33,6.26,6.26,0,0,1-.62,2.75,5.06,5.06,0,0,1-1.83,2.09,5.88,5.88,0,0,1-3,.91l-.17-.68a8.69,8.69,0,0,1,2.48.35,6.39,6.39,0,0,1,2.19,1.15,5.83,5.83,0,0,1,1.56,2,6.4,6.4,0,0,1,.58,2.86,7.2,7.2,0,0,1-.6,3.06,5.58,5.58,0,0,1-1.63,2.09,6.45,6.45,0,0,1-2.31,1.16,9.85,9.85,0,0,1-2.68.36H7a1,1,0,0,1-.74-.31A1,1,0,0,1,6,57.79V35.88a1,1,0,0,1,.29-.72A1,1,0,0,1,7,34.85Zm-.31,2.06h-8l.41-.65v9.68l-.37-.51h8a4.32,4.32,0,0,0,3-1.17A4.35,4.35,0,0,0,20,40.91,3.87,3.87,0,0,0,18.9,38,4.34,4.34,0,0,0,15.77,36.91Zm.28,10.61H8l.17-.24V57.1L8,56.79h8.11a6,6,0,0,0,3.7-1.11,4.15,4.15,0,0,0,1.47-3.54,4.68,4.68,0,0,0-.72-2.74,3.88,3.88,0,0,0-1.92-1.46A7.68,7.68,0,0,0,16.05,47.52Z" transform="translate(-5.98 -21.17)"/><path class="cls-1" d="M43.12,37.52,34.8,58.16a1.13,1.13,0,0,1-.37.51.91.91,0,0,1-.55.18,1,1,0,0,1-.75-.26.84.84,0,0,1-.24-.63.78.78,0,0,1,0-.42l9-22.11a1,1,0,0,1,.39-.53,1.16,1.16,0,0,1,.6-.15,1,1,0,0,1,.63.19,1.29,1.29,0,0,1,.4.49l9,22a1.53,1.53,0,0,1,.07.41.93.93,0,0,1-.31.74,1.12,1.12,0,0,1-.72.26,1,1,0,0,1-.6-.19,1.21,1.21,0,0,1-.39-.5L42.5,37.35ZM36.79,51.9l.85-2H48.25l.41,2Z" transform="translate(-5.98 -21.17)"/><path class="cls-1" d="M76.87,34.72a.91.91,0,0,1,.73.34,1,1,0,0,1,.29.68,1,1,0,0,1,0,.34.81.81,0,0,1-.15.31l-8,11.06.41-1.34V57.79a1,1,0,0,1-.31.71,1.07,1.07,0,0,1-1.51,0,1,1,0,0,1-.31-.71V46.35l.21.82L60.3,36.46a1.07,1.07,0,0,1-.2-.36.92.92,0,0,1-.07-.36.9.9,0,0,1,.36-.73,1.12,1.12,0,0,1,.73-.29,1,1,0,0,1,.86.47l7.36,10-.52-.07L76,35.23A1,1,0,0,1,76.87,34.72Z" transform="translate(-5.98 -21.17)"/><path class="cls-2" d="M95.11,37.52,86.79,58.16a1.06,1.06,0,0,1-.37.51.91.91,0,0,1-.55.18,1,1,0,0,1-.75-.26.88.88,0,0,1-.24-.63.78.78,0,0,1,0-.42l9-22.11a1,1,0,0,1,.39-.53,1.16,1.16,0,0,1,.6-.15,1,1,0,0,1,.63.19,1.29,1.29,0,0,1,.4.49l9,22a1.53,1.53,0,0,1,.07.41.93.93,0,0,1-.31.74,1.12,1.12,0,0,1-.72.26,1,1,0,0,1-.6-.19,1.21,1.21,0,0,1-.39-.5L94.49,37.35ZM88.78,51.9l.85-2h10.61l.42,2Z" transform="translate(-5.98 -21.17)"/><path class="cls-2" d="M133.58,34.85a.88.88,0,0,1,.7.28.92.92,0,0,1,.26.68V57.72a1,1,0,0,1-.33.8,1.07,1.07,0,0,1-.73.29,1.44,1.44,0,0,1-.46-.08.88.88,0,0,1-.36-.26L117.39,37.93l.58-.34v20.3a.89.89,0,0,1-.27.65.93.93,0,0,1-.68.27,1,1,0,0,1-.71-.27.91.91,0,0,1-.25-.65v-22a1,1,0,0,1,1-1,1.29,1.29,0,0,1,.45.09.76.76,0,0,1,.37.29L133,55.56l-.35.62V35.81a1,1,0,0,1,1-1Z" transform="translate(-5.98 -21.17)"/><path class="cls-1" d="M165.11,34.85a1.07,1.07,0,0,1,.73.31,1,1,0,0,1,.33.75V57.75a1.16,1.16,0,0,1-.36.75,1,1,0,0,1-.74.31,1,1,0,0,1-.79-.31,1.08,1.08,0,0,1-.27-.75V35.91a1,1,0,0,1,.31-.75A1.09,1.09,0,0,1,165.11,34.85Zm-.18,10.72h16.26l0,2H164.8Zm16.23-10.72a1,1,0,0,1,.77.31,1.08,1.08,0,0,1,.29.75V57.75a1.13,1.13,0,0,1-.33.75,1,1,0,0,1-.77.31,1.06,1.06,0,0,1-1.06-1.06V35.91a1,1,0,0,1,.33-.75A1.09,1.09,0,0,1,181.16,34.85Z" transform="translate(-5.98 -21.17)"/><path class="cls-1" d="M203.51,37.52l-8.32,20.64a1.07,1.07,0,0,1-.38.51.88.88,0,0,1-.54.18,1,1,0,0,1-.76-.26.88.88,0,0,1-.24-.63.92.92,0,0,1,0-.42l9-22.11a1,1,0,0,1,.4-.53,1.16,1.16,0,0,1,.6-.15,1,1,0,0,1,.63.19,1.18,1.18,0,0,1,.39.49l9,22a1.51,1.51,0,0,1,.06.41.92.92,0,0,1-.3.74,1.12,1.12,0,0,1-.72.26,1,1,0,0,1-.6-.19,1.24,1.24,0,0,1-.4-.5l-8.52-20.81ZM197.18,51.9l.85-2h10.61l.41,2Z" transform="translate(-5.98 -21.17)"/><path class="cls-1" d="M242,34.85a.88.88,0,0,1,.7.28,1,1,0,0,1,.26.68V57.72a1,1,0,0,1-.33.8,1.07,1.07,0,0,1-.73.29,1.39,1.39,0,0,1-.46-.08.88.88,0,0,1-.36-.26L225.79,37.93l.58-.34v20.3a.89.89,0,0,1-.27.65,1,1,0,0,1-1.39,0,.91.91,0,0,1-.25-.65v-22a1,1,0,0,1,1-1,1.28,1.28,0,0,1,.44.09.74.74,0,0,1,.38.29l15.09,20.33-.34.62V35.81a1,1,0,0,1,1-1Z" transform="translate(-5.98 -21.17)"/><circle class="cls-3" cx="143.56" cy="10.53" r="10.53"/><path class="cls-4" d="M156.42,26.36a16,16,0,0,1-2.14,6.41,10.35,10.35,0,0,1-4.51,3.85" transform="translate(-5.98 -21.17)"/><path class="cls-2" d="M156.42,26.36a10.37,10.37,0,0,0-4.5,3.84,15.94,15.94,0,0,0-2.15,6.42" transform="translate(-5.98 -21.17)"/><path class="cls-4" d="M142.37,30.55a13,13,0,0,0,2.27,6.08,12.87,12.87,0,0,0,5.13,4" transform="translate(-5.98 -21.17)"/><path class="cls-2" d="M142.37,30.55a12.83,12.83,0,0,1,5.13,4,12.81,12.81,0,0,1,2.27,6.07" transform="translate(-5.98 -21.17)"/><path class="cls-2" d="M151,57.77a1.07,1.07,0,0,1-.36.74,1,1,0,0,1-.73.3,1,1,0,0,1-.79-.3,1.07,1.07,0,0,1-.27-.74s.77-22.44,1.09-22.44S151,57.77,151,57.77Z" transform="translate(-5.98 -21.17)"/></svg>