<svg id="Layer_1" data-name="Layer 1" xmlns="http://www.w3.org/2000/svg" viewBox="0 0 467 467"><defs><style>.cls-1{fill:none;stroke:#039b9a;stroke-miterlimit:10;stroke-width:24px;}.cls-2{fill:#039b9a;}</style></defs><title>01</title><circle class="cls-1" cx="233.5" cy="233.5" r="221.5"/><path class="cls-2" d="M256.75,355.91a9.41,9.41,0,0,1-6.72-2.69,8.37,8.37,0,0,1-2.84-6.28V167l3.29,3-40.37,24.52a9.19,9.19,0,0,1-4.18.9,8.65,8.65,0,0,1-6.88-3.14,9.59,9.59,0,0,1-2.69-6.13q0-4.78,4.78-7.78l50.53-30.2a12,12,0,0,1,7.18-1.49,8.16,8.16,0,0,1,5.53,2.84,9,9,0,0,1,2.24,6.13V346.94a8.41,8.41,0,0,1-2.84,6.28A9.82,9.82,0,0,1,256.75,355.91Z" transform="translate(-16.5 -16.5)"/></svg>