<svg id="Layer_1" data-name="Layer 1" xmlns="http://www.w3.org/2000/svg" viewBox="0 0 467 467"><defs><style>.cls-1{fill:none;stroke:#039b9a;stroke-miterlimit:10;stroke-width:24px;}.cls-2{fill:#039b9a;}</style></defs><title>02</title><circle class="cls-1" cx="233.5" cy="233.5" r="221.5"/><path class="cls-2" d="M307.29,338.57a8.69,8.69,0,0,1,8.67,8.67,8.21,8.21,0,0,1-2.55,6.28,8.57,8.57,0,0,1-6.12,2.39H195.16a11.1,11.1,0,0,1-6.87-2.24c-2-1.49-3-3.74-3-6.73a9.25,9.25,0,0,1,2.69-6.27l68.77-76.25q16.44-17.34,24.81-31.69t8.37-28.4q0-13.46-5.53-23.18a37.17,37.17,0,0,0-15.84-15q-10.32-5.22-25-5.23A51.71,51.71,0,0,0,218,167.55q-11.82,6.58-17.79,21.53A10.45,10.45,0,0,1,197,193a7.57,7.57,0,0,1-4.49,1.5,9.94,9.94,0,0,1-6.28-2.39c-2-1.6-3-3.39-3-5.39a8.36,8.36,0,0,1,1.2-4.18q1.18-2.08,2.69-4.79a57.73,57.73,0,0,1,24.07-25.41,68.51,68.51,0,0,1,33.64-8.67q20.32,0,34.68,7.62a52.51,52.51,0,0,1,21.83,21.08q7.47,13.46,7.47,30.8a69.27,69.27,0,0,1-3.74,22,98.6,98.6,0,0,1-12.25,23.77,263.89,263.89,0,0,1-22.28,27.81l-58.3,65.48-3-3.59Z" transform="translate(-16.5 -16.5)"/></svg>