<svg id="Layer_1" data-name="Layer 1" xmlns="http://www.w3.org/2000/svg" viewBox="0 0 467 467"><defs><style>.cls-1{fill:none;stroke:#039b9a;stroke-miterlimit:10;stroke-width:24px;}.cls-2{fill:#039b9a;}</style></defs><title>03</title><circle class="cls-1" cx="233.5" cy="233.5" r="221.5"/><path class="cls-2" d="M202.62,330.12a10.19,10.19,0,0,1,3.44.59,14.36,14.36,0,0,1,4,2.7,38.58,38.58,0,0,0,14.8,10,57.59,57.59,0,0,0,46.34-3.14,51.27,51.27,0,0,0,19.43-18.39A50.19,50.19,0,0,0,298,294.84q0-17.05-7.77-27.81a46.78,46.78,0,0,0-19.44-15.85,60.1,60.1,0,0,0-24.22-5.08q-3.28,0-6.42.3a47.34,47.34,0,0,0-5.83.9,20.65,20.65,0,0,1-4.19.59,7.39,7.39,0,0,1-5.83-2.54,9.31,9.31,0,0,1-2.24-6.43,9.9,9.9,0,0,1,.59-3.43,11.67,11.67,0,0,1,2.1-3.44l61.59-68.17,3.29,5.08H199a8.69,8.69,0,0,1-8.67-8.67,8.22,8.22,0,0,1,2.55-6.28,8.61,8.61,0,0,1,6.12-2.39H299.5q5.07,0,7.17,3.14a11.09,11.09,0,0,1,2.09,6.13,8.38,8.38,0,0,1-.74,3.44,10.91,10.91,0,0,1-2.25,3.14l-60.69,68.17-6.58-3.89q.9-1.19,6-2.24a43.05,43.05,0,0,1,8.37-1,64.84,64.84,0,0,1,30.8,7.77,60.81,60.81,0,0,1,23.62,22.43q9,14.65,9,35.58t-9.87,36.62a67.73,67.73,0,0,1-26.46,24.37q-16.59,8.67-37.22,8.67a71.53,71.53,0,0,1-24.07-4.18,58.94,58.94,0,0,1-20.78-12.56,8.25,8.25,0,0,1-3.29-3.44,8.86,8.86,0,0,1-.9-3.74,10.5,10.5,0,0,1,2.54-6.72A7.92,7.92,0,0,1,202.62,330.12Z" transform="translate(-16.5 -16.5)"/></svg>