<svg id="Layer_1" data-name="Layer 1" xmlns="http://www.w3.org/2000/svg" viewBox="0 0 334.88 227.18"><defs><style>.cls-1{font-size:30.73px;font-family:Cocogoose-Light, Cocogoose;font-weight:300;letter-spacing:0.1em;}.cls-1,.cls-4{fill:#315846;}.cls-2{letter-spacing:0.08em;}.cls-3{letter-spacing:0.1em;}.cls-5{fill:#fff;}.cls-6{fill:#315948;}</style></defs><title>abc_logo</title><text class="cls-1" transform="translate(7.73 217.61)">AGRIB<tspan class="cls-2" x="110.55" y="0">L</tspan><tspan class="cls-3" x="130.59" y="0">OCKCHAIN</tspan></text><text class="cls-1" transform="translate(120.22 26.78)">TEAM</text><path class="cls-4" d="M390,296.42,374.37,274a3.79,3.79,0,0,0-2.19-1.65,4.22,4.22,0,0,0-2.73.83A35.48,35.48,0,0,1,348,280.29a33.24,33.24,0,0,1-24.61-10.53,35.38,35.38,0,0,1-7.11-11.39,39.82,39.82,0,0,1,0-28,35.8,35.8,0,0,1,7.11-11.48A33,33,0,0,1,348,208.28a34.87,34.87,0,0,1,21.24,7,4,4,0,0,0,2.78.78,3.56,3.56,0,0,0,2.14-1.78l15.4-21.87a3.8,3.8,0,0,0,.28-3.47,5.76,5.76,0,0,0-2.28-2.37,70.84,70.84,0,0,0-18.28-8.8,70.62,70.62,0,0,0-39.19-.54,71.34,71.34,0,0,0-16.64,7,68.17,68.17,0,0,0-14.08,10.89,71.94,71.94,0,0,0-6.12,7.07c-.19-.52-.36-1-.58-1.55a39.43,39.43,0,0,0-20.87-20.88,38,38,0,0,0-15.13-3H196.17a3.83,3.83,0,0,0-3,1.14,4.33,4.33,0,0,0-1.05,3.05v79.58l-29.44-75.93-2.28-5.2a11.87,11.87,0,0,0-1.64-1.68,3.87,3.87,0,0,0-2.64-1H132.83a4.3,4.3,0,0,0-1.55.32,6.37,6.37,0,0,0-1.55.86,6.65,6.65,0,0,0-1.23,1.19,2.69,2.69,0,0,0-.6,1.18L78.41,308.45c-.49,1.22-.35,2.13.41,2.74a4.5,4.5,0,0,0,2.87.91h26.89a4.56,4.56,0,0,0,4.65-3.37q1.72-4.65,3.51-9.26t3.51-9.25h48.4q1.72,4.65,3.46,9.25t3.56,9.26a4.94,4.94,0,0,0,1.77,2.59,5.7,5.7,0,0,0,3.24.78h81.4a36.55,36.55,0,0,0,15.26-3.29A40.93,40.93,0,0,0,290,299.93a42.6,42.6,0,0,0,6.73-9.2c.89,1,1.7,2,2.65,3a69.93,69.93,0,0,0,14.08,10.89,70.25,70.25,0,0,0,56,6.34A72.32,72.32,0,0,0,388,302.07a5.74,5.74,0,0,0,2.28-2.28A3.57,3.57,0,0,0,390,296.42ZM227.44,203.63H247a14.5,14.5,0,0,1,5.57,1.05,12.93,12.93,0,0,1,8.23,12.16,13.25,13.25,0,0,1-1.05,5.34,13.05,13.05,0,0,1-2.88,4.19,12.42,12.42,0,0,1-4.43,2.74,16.66,16.66,0,0,1-5.72.95H227.44Zm37.14,71.82a15.6,15.6,0,0,1-3,4.88,14.8,14.8,0,0,1-4.48,3.42,12.29,12.29,0,0,1-5.57,1.28H227.44V254.58h24.12a11.94,11.94,0,0,1,5.62,1.37,15.31,15.31,0,0,1,4.48,3.51,16.32,16.32,0,0,1,2.92,4.87,15.21,15.21,0,0,1,1.05,5.47A15.6,15.6,0,0,1,264.58,275.45Z" transform="translate(-78.12 -136.55)"/><path class="cls-5" d="M410.41,296.42,394.82,274c-.73-1-2.89-.73-3.13-.7H373.83l5,5.45a35.56,35.56,0,0,1-10.35,1.54,33.24,33.24,0,0,1-24.61-10.53,35.38,35.38,0,0,1-7.11-11.39,39.82,39.82,0,0,1,0-28,35.8,35.8,0,0,1,7.11-11.48,33,33,0,0,1,24.61-10.57,36.13,36.13,0,0,1,7.57.8l-3.48,6.16,1.42.16,17.48.63a2.59,2.59,0,0,0,1,0,3.56,3.56,0,0,0,2.14-1.78L410,192.42a3.8,3.8,0,0,0,.28-3.47,5.76,5.76,0,0,0-2.28-2.37,70.84,70.84,0,0,0-18.28-8.8,70.62,70.62,0,0,0-39.19-.54,71.34,71.34,0,0,0-16.64,7,68.17,68.17,0,0,0-14.08,10.89,71.94,71.94,0,0,0-6.12,7.07c-.19-.52-.36-1-.58-1.55a39.43,39.43,0,0,0-20.87-20.88,38,38,0,0,0-15.13-3H216.62a3.83,3.83,0,0,0-3,1.14,4.33,4.33,0,0,0-1,3.05v79.58l-29.44-75.93-2.28-5.2a11.87,11.87,0,0,0-1.64-1.68,3.87,3.87,0,0,0-2.64-1H153.28a4.3,4.3,0,0,0-1.55.32,6.37,6.37,0,0,0-1.55.86,6.65,6.65,0,0,0-1.23,1.19,2.69,2.69,0,0,0-.6,1.18L98.86,308.45c-.49,1.22-.35,2.13.41,2.74a4.5,4.5,0,0,0,2.87.91H129a4.56,4.56,0,0,0,4.65-3.37q1.73-4.65,3.51-9.26t3.51-9.25h48.4q1.72,4.65,3.46,9.25t3.56,9.26a4.94,4.94,0,0,0,1.77,2.59,5.7,5.7,0,0,0,3.24.78h81.4a36.55,36.55,0,0,0,15.26-3.29,40.93,40.93,0,0,0,12.68-8.88,42.6,42.6,0,0,0,6.73-9.2c.89,1,1.7,2,2.65,3a69.93,69.93,0,0,0,14.08,10.89,70.25,70.25,0,0,0,56,6.34,72.32,72.32,0,0,0,18.46-8.89,5.74,5.74,0,0,0,2.28-2.28A3.57,3.57,0,0,0,410.41,296.42ZM247.89,203.63h19.56a14.5,14.5,0,0,1,5.57,1.05,12.93,12.93,0,0,1,8.23,12.16,13.25,13.25,0,0,1-1.05,5.34,13.05,13.05,0,0,1-2.88,4.19,12.42,12.42,0,0,1-4.43,2.74,16.66,16.66,0,0,1-5.72.95H247.89ZM285,275.45a15.6,15.6,0,0,1-3,4.88,14.8,14.8,0,0,1-4.48,3.42A12.29,12.29,0,0,1,272,285H247.89V254.58H272a11.94,11.94,0,0,1,5.62,1.37,15.31,15.31,0,0,1,4.48,3.51,16.32,16.32,0,0,1,2.92,4.87,15.21,15.21,0,0,1,1.05,5.47A15.6,15.6,0,0,1,285,275.45Z" transform="translate(-78.12 -136.55)"/><path class="cls-6" d="M369.12,314.59a69.73,69.73,0,0,1-49.61-20.52c-.62-.62-1.18-1.29-1.73-1.93-.16-.19-.32-.39-.49-.58a42.73,42.73,0,0,1-6.48,8.7,41.47,41.47,0,0,1-12.82,9,37.12,37.12,0,0,1-15.46,3.33h-81.4a6.22,6.22,0,0,1-3.51-.86,5.51,5.51,0,0,1-2-2.84c-1.21-3.08-2.39-6.17-3.55-9.24s-2.23-5.94-3.35-8.94H141q-1.68,4.5-3.39,8.94-1.78,4.61-3.51,9.25a5,5,0,0,1-5.1,3.69H102.14a5,5,0,0,1-3.17-1c-.65-.52-1.27-1.51-.56-3.29l49.5-128.15a2.91,2.91,0,0,1,.66-1.31,7.33,7.33,0,0,1,3-2.2,4.94,4.94,0,0,1,1.73-.35h23.33a4.36,4.36,0,0,1,3,1.07,12.9,12.9,0,0,1,1.71,1.76l2.33,5.29,28.52,73.56v-77a4.83,4.83,0,0,1,1.18-3.38,4.26,4.26,0,0,1,3.31-1.29h60.53a38.62,38.62,0,0,1,15.32,3.09,40.05,40.05,0,0,1,12.59,8.49,40.46,40.46,0,0,1,8.54,12.64c.1.24.2.5.29.75a72.5,72.5,0,0,1,5.62-6.42,68.75,68.75,0,0,1,14.18-11,71.51,71.51,0,0,1,16.75-7.07,68.6,68.6,0,0,1,18.68-2.53,69.38,69.38,0,0,1,20.79,3.08,71.74,71.74,0,0,1,18.4,8.85,6.25,6.25,0,0,1,2.44,2.56,4.23,4.23,0,0,1-.28,3.89L395,214.57a4,4,0,0,1-2.44,2,3,3,0,0,1-1.22,0L374,215.88l-2.19-.24,3.52-6.22a35.92,35.92,0,0,0-6.83-.66,32.53,32.53,0,0,0-24.26,10.41,35.53,35.53,0,0,0-7,11.34,39.27,39.27,0,0,0,0,27.68,35,35,0,0,0,7,11.24,32.65,32.65,0,0,0,24.26,10.38,35.37,35.37,0,0,0,9.48-1.3l-5.23-5.69h19c.38-.05,2.64-.28,3.52.89l15.63,22.49a4.09,4.09,0,0,1,.27,3.82,6.41,6.41,0,0,1-2.46,2.47,73.76,73.76,0,0,1-18.56,8.93A69.23,69.23,0,0,1,369.12,314.59Zm-52-24.69.45.51c.33.37.64.74,1,1.11.53.63,1.08,1.28,1.67,1.87a68.6,68.6,0,0,0,48.93,20.23,68.26,68.26,0,0,0,20.68-3.12,72.36,72.36,0,0,0,18.34-8.83,5.48,5.48,0,0,0,2.12-2.1,3.16,3.16,0,0,0-.26-2.91l-15.57-22.39c-.42-.56-1.84-.6-2.68-.5H374.92L379.7,279l-.73.22a36.27,36.27,0,0,1-10.49,1.56,33.69,33.69,0,0,1-25-10.68,36.15,36.15,0,0,1-7.21-11.55,40.31,40.31,0,0,1,0-28.38,36.51,36.51,0,0,1,7.21-11.64,33.43,33.43,0,0,1,25-10.72,37,37,0,0,1,7.67.81l.64.14-3.45,6.09.7.08,17.45.63a2.53,2.53,0,0,0,.92,0,3.17,3.17,0,0,0,1.83-1.57l15.41-21.89a3.29,3.29,0,0,0,.24-3,5.17,5.17,0,0,0-2.1-2.18,70.81,70.81,0,0,0-18.17-8.75,70.15,70.15,0,0,0-38.92-.54,70.84,70.84,0,0,0-16.52,7,67.18,67.18,0,0,0-14,10.81,70.28,70.28,0,0,0-6.07,7l-.53.69-.31-.81c-.07-.2-.14-.4-.22-.6a8,8,0,0,0-.35-.93,39,39,0,0,0-20.62-20.63,37.62,37.62,0,0,0-14.94-3H216.62a3.31,3.31,0,0,0-2.6,1,3.82,3.82,0,0,0-.93,2.73v82.14l-30.37-78.32-2.27-5.18a13.07,13.07,0,0,0-1.51-1.51,3.37,3.37,0,0,0-2.33-.84H153.28a4.09,4.09,0,0,0-1.38.28,6.65,6.65,0,0,0-2.58,1.9,2.26,2.26,0,0,0-.49,1L99.31,308.62c-.54,1.35-.11,1.89.26,2.19a4,4,0,0,0,2.57.81H129a4.08,4.08,0,0,0,4.19-3.05q1.74-4.67,3.52-9.27t3.51-9.25l.11-.31h49.07l.12.31q1.72,4.65,3.46,9.25t3.55,9.25a4.57,4.57,0,0,0,1.6,2.37,5.3,5.3,0,0,0,3,.7h81.4a36.15,36.15,0,0,0,15.06-3.24,40.79,40.79,0,0,0,12.53-8.78,42,42,0,0,0,6.66-9.1ZM272,285.51h-24.6V254.1H272a12.5,12.5,0,0,1,5.84,1.42,15.92,15.92,0,0,1,4.62,3.62,16.9,16.9,0,0,1,3,5,15.68,15.68,0,0,1,1.08,5.65,16.14,16.14,0,0,1-1.08,5.82h0a16.48,16.48,0,0,1-3.06,5,15.54,15.54,0,0,1-4.62,3.52A12.89,12.89,0,0,1,272,285.51Zm-23.64-1H272a12,12,0,0,0,5.36-1.23A14.4,14.4,0,0,0,281.7,280a15.06,15.06,0,0,0,2.88-4.73h0a15.08,15.08,0,0,0,1-5.47,14.62,14.62,0,0,0-1-5.3,15.7,15.7,0,0,0-2.84-4.74,14.91,14.91,0,0,0-4.33-3.4,11.55,11.55,0,0,0-5.4-1.31H248.37Zm18.8-54H247.41V203.15h20a15.14,15.14,0,0,1,5.76,1.08,13.78,13.78,0,0,1,4.54,3,13.34,13.34,0,0,1,4,9.63,13.82,13.82,0,0,1-1.09,5.53,13.55,13.55,0,0,1-3,4.34,13,13,0,0,1-4.61,2.85A17.19,17.19,0,0,1,267.17,230.54Zm-18.8-1h18.8a16,16,0,0,0,5.55-.93A12,12,0,0,0,277,226a12.64,12.64,0,0,0,2.77-4,12.82,12.82,0,0,0,1-5.15,12.36,12.36,0,0,0-1-4.91,12.6,12.6,0,0,0-2.73-4,12.73,12.73,0,0,0-4.23-2.77,14.17,14.17,0,0,0-5.39-1H248.37Z" transform="translate(-78.12 -136.55)"/></svg>