<svg id="Layer_1" data-name="Layer 1" xmlns="http://www.w3.org/2000/svg" viewBox="0 0 467 467"><defs><style>.cls-1{fill:none;stroke:#039b9a;stroke-miterlimit:10;stroke-width:24px;}.cls-2{fill:#039b9a;}</style></defs><title>blockchain</title><circle class="cls-1" cx="233.5" cy="233.5" r="221.5"/><path class="cls-2" d="M419.9,155.73a3.25,3.25,0,0,0-.06-.45,4.7,4.7,0,0,0-.46-1.14,3.85,3.85,0,0,0-.26-.34,5,5,0,0,0-.49-.65c-.12-.11-.26-.19-.38-.29a4.44,4.44,0,0,0-.59-.46l0,0,0,0-39.94-22.88a4.76,4.76,0,0,0-4.76,0l-40,22.88,0,0,0,0a4.26,4.26,0,0,0-.59.46,3.65,3.65,0,0,0-.37.29,5.21,5.21,0,0,0-.5.66c-.08.12-.18.21-.25.33a4.73,4.73,0,0,0-.47,1.14c0,.14,0,.29-.06.43a5.3,5.3,0,0,0-.1.8v9.36l-35.39-22.22a4.41,4.41,0,0,0,.09-.73V103.05a4.06,4.06,0,0,0-.1-.78,3.47,3.47,0,0,0-.06-.45,4.47,4.47,0,0,0-.46-1.13,4.4,4.4,0,0,0-.31-.41,4.21,4.21,0,0,0-.44-.58,5.37,5.37,0,0,0-.45-.35,3.9,3.9,0,0,0-.51-.4h-.44l0,.29L252.55,76.4a4.77,4.77,0,0,0-4.74,0L207.92,99.24l0,.53h0c-.18-.38-.35-.25-.51-.1a3.87,3.87,0,0,0-.45.35,5,5,0,0,0-.45.58,3.79,3.79,0,0,0-.3.4,5.17,5.17,0,0,0-.47,1.14c0,.14,0,.29-.05.43a.78.78,0,0,0,.14.79v39.9a.72.72,0,0,0-.15.73L170.47,166.2v-9.69a5,5,0,0,0-.1-.78c0-.15,0-.31-.06-.45a4.73,4.73,0,0,0-.47-1.14c-.07-.12-.17-.22-.25-.34a6.24,6.24,0,0,0-.5-.65,3.8,3.8,0,0,0-.38-.29,4.34,4.34,0,0,0-.58-.46l0,0,0,0-39.94-22.88a4.76,4.76,0,0,0-4.76,0L83.41,152.36l0,0h0a5.29,5.29,0,0,0-.59.47,3.65,3.65,0,0,0-.37.29,4.41,4.41,0,0,0-.5.66,4.08,4.08,0,0,0-.25.33,4.73,4.73,0,0,0-.47,1.14c0,.14,0,.29-.06.43a5.3,5.3,0,0,0-.1.8v39.4a4.8,4.8,0,0,0,2.51,4.22l37.71,20.59v55.11l-37.8,21.64,0,0h0a4.44,4.44,0,0,0-.59.46,4.2,4.2,0,0,0-.38.3,5.29,5.29,0,0,0-.51.66c-.08.12-.18.22-.25.34a5.17,5.17,0,0,0-.47,1.14c0,.14,0,.29-.06.44a5.3,5.3,0,0,0-.1.8v39.41a4.77,4.77,0,0,0,2.49,4.19L123.39,367a5.38,5.38,0,0,0,.7.28c.12,0,.24.11.37.14a4.56,4.56,0,0,0,2.43,0c.13,0,.25-.1.38-.14A5.24,5.24,0,0,0,128,367l33.88-18.49,43.93,29.24v19.86a4.72,4.72,0,0,0,2.46,4.16l39.59,21.61a4.59,4.59,0,0,0,.7.27c.12.05.24.11.37.15a4.69,4.69,0,0,0,2.41,0c.13,0,.25-.11.37-.15a4.59,4.59,0,0,0,.7-.27L292,401.79a4.73,4.73,0,0,0,2.46-4.16V377.78l43.93-29.25L372.23,367a4.12,4.12,0,0,0,.69.27,3,3,0,0,0,.38.15,4.77,4.77,0,0,0,2.43,0c.13,0,.25-.11.38-.15a4.12,4.12,0,0,0,.69-.27l39.89-21.78a4.76,4.76,0,0,0,2.49-4.19v-40a4.91,4.91,0,0,0-.1-.77c0-.15,0-.3-.06-.45a4.56,4.56,0,0,0-.46-1.12,4.08,4.08,0,0,0-.25-.33,5.16,5.16,0,0,0-.49-.64c-.11-.11-.25-.19-.37-.3a6.41,6.41,0,0,0-.58-.45h0l0,0-37-21.21V221.07l37.71-20.59a4.8,4.8,0,0,0,2.51-4.22V156.51A4.17,4.17,0,0,0,419.9,155.73ZM279.06,358.24,250.18,374,221.3,358.24l-1.22-.67,30.1-17.24,30.1,17.23ZM160.62,193.53l-30.37,16.58v-29l30.37-16.57Zm-35.11,90.33,30.1,17.24-1.22.66-28.88,15.77L96.63,301.76l-1.22-.66Zm39.56,11.77-34.82-19.95V220.86L162,203.55l43.8,28.5V267Zm49.72-155.2v-29L245.16,128v29Zm70.59,0L255,157V128l30.37-16.58Zm-35.2,71.75,30.1,17.23-1.22.67-28.88,15.77L221.3,230.08l-1.22-.67Zm-35.39,25.35,30.37,16.58v29.05l-30.37-16.59ZM255,254.11l30.37-16.58v29L255,283.16Zm39.4-22.06,43.8-28.51,31.72,17.32v54.83l-34.82,19.94L294.41,267Zm75.52-51v29l-30.37-16.57v-29ZM339.56,338.25v-29l30.37,16.58v29Zm64.17-36.49-28.87,15.77L346,301.76l-1.22-.66,30.1-17.24L405,301.1ZM374.86,139.14,405,156.38l-1.23.67-28.87,15.76L346,157.05l-1.22-.67ZM330.7,197.62l-40.62,26.43L255,204V167.79l32.12-17.54,43.4,27.18v19A4.68,4.68,0,0,0,330.7,197.62ZM250.18,86l30.1,17.24L251.5,119l-1.32.72-1.32-.72-28.78-15.71Zm-37.13,64.22,32.11,17.54V204L210.1,224.05l-40.62-26.43a4.68,4.68,0,0,0,.17-1.23v-19Zm-87.54-11.12,30.1,17.24-1.22.67-28.88,15.76L96.63,157.05l-1.22-.67ZM90,164.5l30.37,16.57v29L90,193.53Zm0,144.71,30.37,16.58v29L90,338.25Zm40.22,16.58,30.37-16.58v29l-30.37,16.58Zm39.12,16.53a4.92,4.92,0,0,0,.28-1.52V303.55L210.26,275,245.16,294v38.22l-37,21.19,0,0h0a5.09,5.09,0,0,0-.58.46,2.08,2.08,0,0,0-.36.29,4.41,4.41,0,0,0-.5.64c-.08.12-.18.21-.25.33a5,5,0,0,0-.46,1.12c0,.14,0,.29,0,.43a4.17,4.17,0,0,0-.1.78v9.06Zm45.42,32.85v-9.49l30.37,16.58v29l-30.37-16.58ZM255,411.3v-29l30.37-16.58v29.05Zm40.22-53.52a5.18,5.18,0,0,0-.11-.79,3.47,3.47,0,0,0-.06-.45,4.57,4.57,0,0,0-.47-1.15,2.6,2.6,0,0,0-.25-.33,5.45,5.45,0,0,0-.5-.66c-.11-.11-.26-.19-.38-.3a4.44,4.44,0,0,0-.59-.46h0l0,0L255,332V294L289.92,275l40.61,28.6V341.1a4.73,4.73,0,0,0,.27,1.49l-35.57,23.69Zm84.55-2.95v-29l30.37-16.58v29Zm0-144.72v-29l30.37-16.57v29Z" transform="translate(-16.5 -16.5)"/></svg>